<svg width="25" height="25" viewBox="0 0 25 25" fill="none" xmlns="http://www.w3.org/2000/svg">
<path d="M3.21729 4.31787C3.21729 4.11896 3.2963 3.92819 3.43695 3.78754C3.57761 3.64689 3.76837 3.56787 3.96729 3.56787H4.52529C5.47529 3.56787 6.04528 4.20687 6.37029 4.80087C6.58729 5.19687 6.74429 5.65587 6.86729 6.07187C6.90055 6.06924 6.93391 6.06791 6.96729 6.06787H19.4653C20.2953 6.06787 20.8953 6.86187 20.6673 7.66087L18.8393 14.0699C18.6754 14.6447 18.3287 15.1505 17.8516 15.5107C17.3745 15.8708 16.793 16.0657 16.1953 16.0659H10.2473C9.64478 16.0659 9.05894 15.868 8.57981 15.5027C8.10068 15.1374 7.75478 14.6249 7.59528 14.0439L6.83529 11.2719L5.57528 7.02387L5.57429 7.01587C5.41829 6.44887 5.27228 5.91787 5.05429 5.52187C4.84529 5.13687 4.67729 5.06787 4.52629 5.06787H3.96729C3.76837 5.06787 3.57761 4.98885 3.43695 4.8482C3.2963 4.70755 3.21729 4.51678 3.21729 4.31787ZM8.29029 10.9079L9.04129 13.6469C9.19129 14.1889 9.68428 14.5659 10.2473 14.5659H16.1953C16.467 14.5659 16.7313 14.4773 16.9482 14.3137C17.1651 14.15 17.3227 13.9201 17.3973 13.6589L19.1343 7.56787H7.30229L8.27629 10.8549L8.29029 10.9079ZM11.7173 19.0679C11.7173 19.5983 11.5066 20.107 11.1315 20.4821C10.7564 20.8572 10.2477 21.0679 9.71729 21.0679C9.18685 21.0679 8.67814 20.8572 8.30307 20.4821C7.928 20.107 7.71729 19.5983 7.71729 19.0679C7.71729 18.5374 7.928 18.0287 8.30307 17.6537C8.67814 17.2786 9.18685 17.0679 9.71729 17.0679C10.2477 17.0679 10.7564 17.2786 11.1315 17.6537C11.5066 18.0287 11.7173 18.5374 11.7173 19.0679ZM10.2173 19.0679C10.2173 18.9353 10.1646 18.8081 10.0708 18.7143C9.97707 18.6205 9.84989 18.5679 9.71729 18.5679C9.58468 18.5679 9.4575 18.6205 9.36373 18.7143C9.26996 18.8081 9.21729 18.9353 9.21729 19.0679C9.21729 19.2005 9.26996 19.3277 9.36373 19.4214C9.4575 19.5152 9.58468 19.5679 9.71729 19.5679C9.84989 19.5679 9.97707 19.5152 10.0708 19.4214C10.1646 19.3277 10.2173 19.2005 10.2173 19.0679ZM18.7173 19.0679C18.7173 19.5983 18.5066 20.107 18.1315 20.4821C17.7564 20.8572 17.2477 21.0679 16.7173 21.0679C16.1869 21.0679 15.6781 20.8572 15.3031 20.4821C14.928 20.107 14.7173 19.5983 14.7173 19.0679C14.7173 18.5374 14.928 18.0287 15.3031 17.6537C15.6781 17.2786 16.1869 17.0679 16.7173 17.0679C17.2477 17.0679 17.7564 17.2786 18.1315 17.6537C18.5066 18.0287 18.7173 18.5374 18.7173 19.0679ZM17.2173 19.0679C17.2173 18.9353 17.1646 18.8081 17.0708 18.7143C16.9771 18.6205 16.8499 18.5679 16.7173 18.5679C16.5847 18.5679 16.4575 18.6205 16.3637 18.7143C16.27 18.8081 16.2173 18.9353 16.2173 19.0679C16.2173 19.2005 16.27 19.3277 16.3637 19.4214C16.4575 19.5152 16.5847 19.5679 16.7173 19.5679C16.8499 19.5679 16.9771 19.5152 17.0708 19.4214C17.1646 19.3277 17.2173 19.2005 17.2173 19.0679Z" fill="#333333"/>
</svg>
