<svg width="30" height="31" viewBox="0 0 30 31" fill="none" xmlns="http://www.w3.org/2000/svg">
<g clip-path="url(#clip0_577_14897)">
<path d="M27.8573 14.2703H15.0001V16.4131H27.8573V14.2703Z" fill="#343538"/>
<path d="M30.0001 8.91357H19.2858V11.0564H30.0001V8.91357Z" fill="#343538"/>
<path d="M0.0867481 14.9195L3.30104 7.41948C3.38352 7.22671 3.52081 7.06241 3.69586 6.94698C3.8709 6.83155 4.076 6.77008 4.28568 6.7702H7.49997V4.62734C7.49997 4.34318 7.61285 4.07065 7.81378 3.86972C8.01471 3.66879 8.28724 3.55591 8.5714 3.55591H25.7143V5.69877H9.64283V19.1516C10.131 19.4351 10.5583 19.8125 10.9 20.2619C11.2416 20.7113 11.491 21.224 11.6335 21.7702H18.3664C18.6272 20.7602 19.2474 19.88 20.1107 19.2946C20.974 18.7091 22.0213 18.4586 23.0561 18.5901C24.0909 18.7215 25.0422 19.2258 25.7318 20.0085C26.4213 20.7912 26.8018 21.7985 26.8018 22.8416C26.8018 23.8848 26.4213 24.8921 25.7318 25.6748C25.0422 26.4574 24.0909 26.9618 23.0561 27.0932C22.0213 27.2246 20.974 26.9742 20.1107 26.3887C19.2474 25.8033 18.6272 24.9231 18.3664 23.9131H11.6335C11.4005 24.8326 10.8674 25.6482 10.1188 26.2308C9.37012 26.8133 8.44859 27.1296 7.49997 27.1296C6.55135 27.1296 5.62981 26.8133 4.88116 26.2308C4.1325 25.6482 3.59947 24.8326 3.36639 23.9131H1.07139C0.78723 23.9131 0.514706 23.8002 0.313774 23.5993C0.112843 23.3983 -4.00543e-05 23.1258 -4.00543e-05 22.8416V15.3416C-9.15527e-05 15.1965 0.029438 15.0528 0.0867481 14.9195ZM22.5 24.9845C22.9238 24.9845 23.3381 24.8588 23.6905 24.6234C24.0429 24.3879 24.3175 24.0532 24.4797 23.6617C24.6419 23.2701 24.6844 22.8393 24.6017 22.4236C24.519 22.0079 24.3149 21.6261 24.0152 21.3264C23.7155 21.0267 23.3337 20.8226 22.918 20.74C22.5024 20.6573 22.0715 20.6997 21.6799 20.8619C21.2884 21.0241 20.9537 21.2987 20.7183 21.6511C20.4828 22.0035 20.3571 22.4178 20.3571 22.8416C20.3577 23.4098 20.5836 23.9545 20.9854 24.3562C21.3871 24.758 21.9318 24.9839 22.5 24.9845ZM7.49997 8.91306H4.99282L2.69568 14.2702H7.49997V8.91306ZM7.49997 24.9845C7.92379 24.9845 8.33809 24.8588 8.69048 24.6234C9.04287 24.3879 9.31752 24.0532 9.47971 23.6617C9.6419 23.2701 9.68434 22.8393 9.60165 22.4236C9.51897 22.0079 9.31488 21.6261 9.0152 21.3264C8.71552 21.0267 8.33369 20.8226 7.91802 20.74C7.50235 20.6573 7.07149 20.6997 6.67993 20.8619C6.28838 21.0241 5.95371 21.2987 5.71825 21.6511C5.48279 22.0035 5.35711 22.4178 5.35711 22.8416C5.35768 23.4098 5.58362 23.9545 5.98536 24.3562C6.38711 24.758 6.93182 24.9839 7.49997 24.9845ZM2.14282 21.7702H3.36639C3.60241 20.8525 4.13629 20.039 4.88435 19.4573C5.63242 18.8756 6.55236 18.5586 7.49997 18.5559V16.4131H2.14282V21.7702Z" fill="#343538"/>
</g>
<defs>
<clipPath id="clip0_577_14897">
<rect width="30" height="30" fill="white" transform="translate(0 0.342773)"/>
</clipPath>
</defs>
</svg>
