<svg width="21" height="21" viewBox="0 0 21 21" fill="none" xmlns="http://www.w3.org/2000/svg">
<path d="M16.2742 20.0627C16.1139 20.0634 15.9558 20.0237 15.8132 19.947L10.7023 17.1378L5.59133 19.947C5.42537 20.0386 5.23825 20.0795 5.05125 20.065C4.86425 20.0506 4.68487 19.9813 4.5335 19.8651C4.38213 19.7489 4.26484 19.5905 4.19496 19.4078C4.12509 19.2251 4.10543 19.0255 4.13823 18.8317L5.14037 12.9082L1.01154 8.69968C0.882726 8.56472 0.791345 8.39548 0.747207 8.21012C0.703068 8.02476 0.70784 7.83028 0.761008 7.64755C0.819092 7.46056 0.925937 7.2944 1.06942 7.16794C1.2129 7.04148 1.38727 6.95978 1.57274 6.9321L7.28495 6.05883L9.80033 0.661389C9.88239 0.483504 10.0105 0.333484 10.17 0.228515C10.3295 0.123545 10.514 0.0678711 10.7023 0.0678711C10.8905 0.0678711 11.075 0.123545 11.2345 0.228515C11.394 0.333484 11.5221 0.483504 11.6042 0.661389L14.1496 6.04831L19.8618 6.92158C20.0473 6.94925 20.2217 7.03096 20.3652 7.15742C20.5086 7.28388 20.6155 7.45004 20.6736 7.63703C20.7267 7.81975 20.7315 8.01424 20.6874 8.19959C20.6432 8.38495 20.5518 8.5542 20.423 8.68916L16.2942 12.8977L17.2963 18.8212C17.3321 19.0184 17.3134 19.2223 17.2424 19.4088C17.1713 19.5952 17.051 19.7564 16.8955 19.8733C16.714 20.0068 16.4955 20.0734 16.2742 20.0627Z" fill="#C6C6C6"/>
<path d="M16.2742 20.0627C16.1139 20.0634 15.9558 20.0237 15.8132 19.947L10.7023 17.1378L5.59133 19.947C5.42537 20.0386 5.23825 20.0795 5.05125 20.065C4.86425 20.0506 4.68487 19.9813 4.5335 19.8651C4.38213 19.7489 4.26484 19.5905 4.19496 19.4078C4.12509 19.2251 4.10543 19.0255 4.13823 18.8317L5.14037 12.9082L1.01154 8.69968C0.882726 8.56472 0.791345 8.39548 0.747207 8.21012C0.703068 8.02476 0.70784 7.83028 0.761008 7.64755C0.819092 7.46056 0.925937 7.2944 1.06942 7.16794C1.2129 7.04148 1.38727 6.95978 1.57274 6.9321L7.28495 6.05883L9.80033 0.661389C9.88239 0.483504 10.0105 0.333484 10.17 0.228515C10.3295 0.123545 10.514 0.0678711 10.7023 0.0678711C10.8905 0.0678711 11.075 0.123545 11.2345 0.228515C11.394 0.333484 11.5221 0.483504 11.6042 0.661389L14.1496 6.04831L19.8618 6.92158C20.0473 6.94925 20.2217 7.03096 20.3652 7.15742C20.5086 7.28388 20.6155 7.45004 20.6736 7.63703C20.7267 7.81975 20.7315 8.01424 20.6874 8.19959C20.6432 8.38495 20.5518 8.5542 20.423 8.68916L16.2942 12.8977L17.2963 18.8212C17.3321 19.0184 17.3134 19.2223 17.2424 19.4088C17.1713 19.5952 17.051 19.7564 16.8955 19.8733C16.714 20.0068 16.4955 20.0734 16.2742 20.0627Z" fill="url(#paint0_linear_577_14913)"/>
<defs>
<linearGradient id="paint0_linear_577_14913" x1="0.717285" y1="7.52514" x2="20.7173" y2="7.52514" gradientUnits="userSpaceOnUse">
<stop stop-color="#FFC71E"/>
<stop offset="0.489196" stop-color="#FFC71E" stop-opacity="0.756153"/>
<stop offset="0.541667" stop-color="#FFC71E" stop-opacity="0"/>
</linearGradient>
</defs>
</svg>
