<svg width="27" height="27" viewBox="0 0 27 27" fill="none" xmlns="http://www.w3.org/2000/svg">
<path d="M13.0976 6.13379H14.3366C14.4467 6.13379 14.5018 6.18886 14.5018 6.29899V20.8367C14.5018 20.9469 14.4467 21.0019 14.3366 21.0019H13.0976C12.9874 21.0019 12.9324 20.9469 12.9324 20.8367V6.29899C12.9324 6.18886 12.9874 6.13379 13.0976 6.13379Z" fill="black"/>
<path d="M6.77873 12.783H20.6557C20.7658 12.783 20.8209 12.838 20.8209 12.9482V14.1872C20.8209 14.2973 20.7658 14.3524 20.6557 14.3524H6.77873C6.66859 14.3524 6.61353 14.2973 6.61353 14.1872V12.9482C6.61353 12.838 6.66859 12.783 6.77873 12.783Z" fill="black"/>
</svg>
