<svg width="30" height="31" viewBox="0 0 30 31" fill="none" xmlns="http://www.w3.org/2000/svg">
<path d="M12.9806 2.92649C14.2805 2.42652 15.7195 2.42652 17.0194 2.92649L26.3231 6.50399C27.4087 6.92212 28.125 7.96649 28.125 9.12899V21.5527C28.1251 22.1211 27.9529 22.6762 27.6313 23.1448C27.3096 23.6134 26.8535 23.9735 26.3231 24.1777L17.0194 27.7571C15.7195 28.2571 14.2805 28.2571 12.9806 27.7571L3.67875 24.1777C3.14799 23.9738 2.69151 23.6138 2.3695 23.1452C2.04749 22.6765 1.87508 22.1213 1.875 21.5527V9.12899C1.87508 8.5604 2.04749 8.00518 2.3695 7.53656C2.69151 7.06794 3.14799 6.70793 3.67875 6.50399L12.9806 2.92649ZM16.3463 4.67587C15.4797 4.34255 14.5203 4.34255 13.6538 4.67587L11.0587 5.67524L21.54 9.64274L25.1925 8.07899L16.3463 4.67399V4.67587ZM26.25 9.66337L15.9375 14.0865V26.139C16.0763 26.1034 16.2113 26.0602 16.3463 26.0077L25.65 22.4302C25.8268 22.362 25.9787 22.2418 26.0859 22.0855C26.193 21.9292 26.2502 21.7441 26.25 21.5546V9.66712V9.66337ZM14.0625 26.1371V14.0865L3.75 9.66524V21.5527C3.7498 21.7422 3.80703 21.9273 3.91414 22.0837C4.02125 22.24 4.17321 22.3602 4.35 22.4284L13.6538 26.0059C13.7887 26.0584 13.9237 26.1015 14.0625 26.1371ZM4.8075 8.07899L15 12.4477L19.0575 10.7077L8.43188 6.68399L4.8075 8.07899Z" fill="#343538"/>
</svg>
