<svg width="31" height="31" viewBox="0 0 31 31" fill="none" xmlns="http://www.w3.org/2000/svg">
<path d="M11.5723 16.7453C11.8248 16.2403 11.9673 15.6703 11.9673 15.0678C11.9673 14.4653 11.8248 13.8953 11.5723 13.3903M11.5723 16.7453C11.1944 17.5008 10.5725 18.1066 9.80738 18.4645C9.04225 18.8225 8.17867 18.9116 7.35657 18.7175C6.53446 18.5233 5.80197 18.0573 5.27778 17.3949C4.75358 16.7325 4.46838 15.9125 4.46838 15.0678C4.46838 14.2231 4.75358 13.4031 5.27778 12.7407C5.80197 12.0783 6.53446 11.6123 7.35657 11.4182C8.17867 11.2241 9.04225 11.3132 9.80738 11.6711C10.5725 12.0291 11.1944 12.6348 11.5723 13.3903M11.5723 16.7453L19.8623 20.8903M11.5723 13.3903L19.8623 9.24533M19.8623 20.8903C19.4174 21.7801 19.3442 22.8102 19.6587 23.754C19.9733 24.6978 20.65 25.4779 21.5398 25.9228C22.4296 26.3677 23.4597 26.4409 24.4034 26.1263C25.3472 25.8118 26.1274 25.1351 26.5723 24.2453C27.0172 23.3555 27.0904 22.3254 26.7758 21.3817C26.4612 20.4379 25.7846 19.6577 24.8948 19.2128C24.4542 18.9925 23.9745 18.8612 23.4832 18.8263C22.9918 18.7913 22.4984 18.8535 22.0311 19.0093C21.0873 19.3239 20.3072 20.0005 19.8623 20.8903ZM19.8623 9.24533C20.0826 9.68583 20.3875 10.0786 20.7595 10.4013C21.1316 10.724 21.5637 10.9702 22.0309 11.1259C22.4982 11.2816 22.9915 11.3438 23.4828 11.3088C23.9741 11.2739 24.4536 11.1425 24.8941 10.9222C25.3346 10.7019 25.7274 10.397 26.0501 10.0249C26.3728 9.65282 26.619 9.22081 26.7747 8.75356C26.9304 8.28631 26.9926 7.79296 26.9576 7.30169C26.9227 6.81041 26.7913 6.33083 26.571 5.89033C26.1261 5.0007 25.346 4.32423 24.4024 4.00976C23.4587 3.69528 22.4288 3.76856 21.5391 4.21346C20.6495 4.65836 19.973 5.43844 19.6586 6.3821C19.3441 7.32576 19.4174 8.3557 19.8623 9.24533Z" stroke="#343538" stroke-width="2" stroke-linecap="round" stroke-linejoin="round"/>
</svg>
